<svg xmlns="http://www.w3.org/2000/svg" version="1.1" xmlns:xlink="http://www.w3.org/1999/xlink" width="600" height="600"><svg xmlns="http://www.w3.org/2000/svg" version="1.1" xmlns:xlink="http://www.w3.org/1999/xlink" width="600" height="600"><svg xmlns="http://www.w3.org/2000/svg" version="1.1" viewBox="0 0 600 600">
  <defs>
    <style>
      .cls-1 {
        fill: #c3985b;
      }

      .cls-2 {
        fill: #c5f6fa;
      }

      .cls-3 {
        display: none;
        fill: #161b23;
      }

      .cls-4 {
        fill: #3bc9db;
      }
    </style>
  </defs>
  <!-- Generator: Adobe Illustrator 28.7.1, SVG Export Plug-In . SVG Version: 1.2.0 Build 142)  -->
  <g>
    <g id="_Слой_1" data-name="Слой_1">
      <g id="_Слой_1-2" data-name="_Слой_1">
        <g id="_Слой_1-2">
          <rect class="cls-3" width="600" height="600"></rect>
          <g>
            <path class="cls-4" d="M400.9,185.3c-14.1.5-28.2.8-42.3,1.6-8.9.5-14.3,5.8-16.9,15-1.6,5.9-1.7,11.9-1.3,17.8,1.5,26-10,45.2-30.8,59.7-8.5,5.9-8.5,5.8-1.3,13,14.7,14.8,48.5,49,49.9,51.7-2.1,0-2.6,1.1-2.6,3,.1,6-4.6,9.1-10,6.5-.3-.1-.8-.2-1.1,0-.6.3-.7.9-.2,1.4.7.9,1.4,1.7,2.1,2.5-1.6,1.2-3.5-1.6-4.7.9-1.3,2.7,2.1,1.6,2.3,3,.2,1.2,2.8,2.8-1,3.2-1.5.1-4,2-4.2,3.4-.5,4-2.8,3.6-5.6,2.6.3,2.1.5,3.8.7,5.4-8.1-6.4-28.9-29-32.2-32.9-2.3-2.8-3.8-2.3-6.1,0-13.1,13.3-26.3,26.5-39.5,39.8-13.9,13.9-27.9,27.8-41.8,41.8-2.3,2.3-3.6,2.2-5.8,0-7.8-8-15.6-15.9-23.6-23.6-2.6-2.5-1.1-3.9.6-5.6,12.5-12.3,25.1-24.5,37.6-36.9,23.8-23.6,47.5-47.4,71.3-71,1.8-1.8,2.1-3-.1-4.7-5.1-3.8-10.4-7.4-14.9-11.8-12.5-12.4-19.5-27.2-20-44.9-.2-5.7.5-11.5,0-17.1-.9-8.9-3.2-17.2-13-20.8-2.5-.9-5-1.1-7.6-1.2-12-.5-24-1-35.9-1.4-1.2,0-2.8-.9-3.4.7-.5,1.3.7,2.4,1.4,3.4,16.1,20,23.3,43.2,22.8,68.4-.6,28.3-10.2,53.3-30.7,73.5-12.1,12-24.4,23.9-36.4,36.1-2.6,2.7-4,2.3-6.3-.2-9.6-10-19.4-19.8-29-29.7-3.6-3.7-3.6-3.8,1.2-5.4,23.4-8,41.8-22.3,52.8-44.6,16.4-33.1,5.6-71.9-25-92.6-8.2-5.6-16.9-10.1-26.7-12.1-2.9-.6-3.9-1.8-3.8-4.9.2-9.6.2-19.1,0-28.7,0-3.2.8-4.1,4-4.1h116.9c29.7,0,51.3,18.3,56.7,47.5.8,4.5,1.3,9,1.9,13.5-.3,4-.1,7.9,1,11.9-.4-4,2-7.9.5-11.9.6-11.2,3.1-22,8.3-32,5.8-11.1,14.8-18.7,26-24,8.5-3.9,17.3-5.2,26.5-5.2h113.9c3.2,0,4.5.7,4.5,4.2-.2,9.6-.1,19.1,0,28.7,0,2.8-.8,3.9-3.6,4.6-20.3,5.5-36.8,16.4-48.3,34.3-19.1,29.7-13.1,70,13.3,93.4,11.1,9.9,22.7,18.6,37.4,22.3,4.4,1.1,1.5,2.9.2,4.2-19.5,19.5-38.9,39-58.4,58.4-38.9,38.8-77.9,77.5-116.8,116.2-.2.2-.5.4-.6.6-2.6,3.5-4.6,3.4-7.8,0-17.2-17.9-34.7-35.5-52.2-53.1-2.6-2.6-3.3-4.2-.1-7.1,8-7.3,15.6-15.1,23.2-22.8,2.1-2.2,3.4-2.1,5.5,0,8.4,8.7,17.1,17.2,25.5,25.9,1.7,1.7,2.7,2,4.4.1,17-18.4,35.9-34.9,53.5-52.7,19.5-19.6,39.1-39.1,58.9-58.5,2.8-2.7,1.7-4-.5-5.9-11.4-9.7-20.9-21.1-27.2-34.8-12.3-26.8-14-54.2-4.7-82.1,4.2-12.8,10.5-24.6,19.6-34.8.5-.1.6-.5.4-.9,0-.1-.4-.2-.6-.2h-.2,0Z"></path>
            <path class="cls-2" d="M334,376c-.2-1.6-.4-3.3-.7-5.4,2.8,1,5.1,1.5,5.6-2.6.2-1.3,2.6-3.2,4.2-3.4,3.8-.3,1.2-2,1-3.2-.3-1.4-3.6-.3-2.3-3,1.2-2.5,3.1.3,4.7-.9-.7-.9-1.4-1.6-2.1-2.5-.4-.5-.3-1.1.2-1.4.3-.1.8,0,1.1,0,5.4,2.6,10.1-.5,10-6.5,0-1.9.5-3,2.6-3h-.1c.4,1.5-.4,4.6,3,2.5,6.4,5.5,12.5,11.4,18.1,17.7,1.9,2.1,2,3.8-.3,5.7-8.2,6.6-15.3,14.4-22.8,21.8-2.9,2.9-4.9,3-7.8-.3-4.7-5.2-10-10-14.4-15.5h0Z"></path>
            <path class="cls-2" d="M141,253.9c-.1,10.7-8.8,19.2-19.4,19.1-11-.1-19.4-8.4-19.3-19.1,0-11.4,8.9-19.9,20.7-19.8,9.1,0,18.2,10,18.1,19.8h-.1Z"></path>
            <path class="cls-2" d="M497.7,253.6c0,10-9,19.5-18.4,19.4-11.5-.1-20.1-8.4-20.1-19.3s8.6-19.1,19.7-19.1,18.7,8.4,18.8,19.1h0Z"></path>
            <path class="cls-2" d="M299.7,398.4c-.1-1.7-1.1-2.1-2.2-.9-2.1,2.3-19.4,18.7-20.2,19.5-3.7,3.6-3.7,4.1-.1,7.8,2.2,2.2,4.4,4.4,6.7,6.6,4.9,4.6,9.8,9.2,14.7,13.8,1.2-1,.9-2,.9-2.8,0-14.1.1-28.2.2-42.3v-1.7h0Z"></path>
            <path class="cls-2" d="M362.1,347.5c-4.3,2.9-5.3-4-5.7-5.5l5.7,5.5Z"></path>
            <path class="cls-1" d="M400.9,185.3c.2,0,.6,0,.6.2.2.4.1.8-.4.9,0-.4-.2-.8-.3-1.2h0Z"></path>
            <path class="cls-2" d="M340.2,362.1c.2-.5-.6-1.4-1.4-1.6-1.2-.3-2.7.9-2.6,1.5.1.5,1.5.7,2.3.7s1.5,0,1.7-.6h0Z"></path>
            <path class="cls-2" d="M329.2,365.2c0-.5-.3-1.4-.7-1.6-.6-.3-1.3.9-1.3,1.5s.7.7,1.1.7.8,0,.9-.6Z"></path>
            <path class="cls-2" d="M332.9,352.2c0-.5-.3-1.4-.7-1.6-.6-.3-1.3.9-1.3,1.5s.7.7,1.1.7.8,0,.9-.6Z"></path>
            <path class="cls-2" d="M335.9,369.2c1.1-.4,2.4-1.7,2.5-2.4.2-1.1-2.5-.8-3.6-.2-1,.6-1,1.6-.6,2.1.1.2.6.9,1.7.5h0Z"></path>
            <path class="cls-2" d="M350.6,353.1c1.1-.4,2.4-1.7,2.5-2.4.2-1.1-2.5-.8-3.6-.2-1,.6-1,1.6-.6,2.1.1.2.6.9,1.7.5h0Z"></path>
            <path class="cls-2" d="M345.6,352.8c.5-.1.9-1.2.7-2-.3-1.2-2-2-2.5-1.6-.4.4,0,1.6.4,2.3.2.3.8,1.3,1.4,1.2h0Z"></path>
            <path class="cls-2" d="M338,339.5c.3.5,1.4.5,2.1,0,1-.8,1.1-2.6.6-2.9s-1.5.6-2,1.2c-.2.3-1,1.2-.7,1.7h0Z"></path>
            <path class="cls-2" d="M341.6,350.9c.5-.2,1.1-.9,1.1-1.3,0-.6-1.3-.6-1.8-.3-.5.3-.4.9-.2,1.2,0,.1.4.5.9.4h0Z"></path>
            <path class="cls-2" d="M352.9,349c.5-.2,1.1-.9,1.1-1.3,0-.6-1.3-.6-1.8-.3-.5.3-.4.9-.2,1.2,0,.1.4.5.9.4h0Z"></path>
            <path class="cls-2" d="M349.3,341.4c.1.3.7.6,1,.5.5-.1.6-1.1.4-1.4s-.8,0-1,.2c-.1,0-.5.4-.4.7h0Z"></path>
            <path class="cls-2" d="M320.5,351.9c.1.3.7.6,1,.5.5-.1.6-1.1.4-1.4s-.8,0-1,.2c-.1,0-.5.4-.4.7h0Z"></path>
            <path class="cls-2" d="M335.8,343c.1.3.7.6,1,.5.5-.1.6-1.1.4-1.4s-.8,0-1,.2c-.1,0-.5.4-.4.7h0Z"></path>
          </g>
        </g>
      </g>
    </g>
  </g>
</svg></svg><style>@media (prefers-color-scheme: light) { :root { filter: none; } }
@media (prefers-color-scheme: dark) { :root { filter: none; } }
</style></svg>